<?xml version="1.0" encoding="utf-8"?>
<!-- Generator: Adobe Illustrator 15.1.0, SVG Export Plug-In  -->
<!DOCTYPE svg PUBLIC "-//W3C//DTD SVG 1.1//EN" "http://www.w3.org/Graphics/SVG/1.1/DTD/svg11.dtd" [
	<!ENTITY ns_flows "http://ns.adobe.com/Flows/1.0/">
]>
<svg version="1.1"
	 xmlns="http://www.w3.org/2000/svg" xmlns:xlink="http://www.w3.org/1999/xlink" xmlns:a="http://ns.adobe.com/AdobeSVGViewerExtensions/3.0/"
	 x="0px" y="0px" width="524px" height="524px" viewBox="0 8.429 524 524"
	 overflow="visible" enable-background="new 0 8.429 524 524" xml:space="preserve">
<defs>
</defs>
<rect y="8.429" fill="#F1A9A0" width="523.76" height="523.76"/>
<g id="XMLID_2_">
	<g>
		<rect x="216.398" y="55.3" fill="#FFFFFF" width="18" height="18"/>
		<rect x="198.398" y="55.3" fill="#FFFFFF" width="18" height="18"/>
		<rect x="432.398" y="163.3" width="18" height="18"/>
		<rect x="432.398" y="145.3" width="18" height="18"/>
		<rect x="432.398" y="127.3" width="18" height="18"/>
		<rect x="432.398" y="109.3" width="18" height="18"/>
		<rect x="432.398" y="91.3" width="18" height="18"/>
		<rect x="414.398" y="433.291" fill="#E5F1FA" width="18" height="17.72"/>
		<rect x="414.398" y="415.3" fill="#E5F1FA" width="18" height="17.71"/>
		<rect x="414.398" y="397.3" fill="#E5F1FA" width="18" height="17.99"/>
		<rect x="414.398" y="379.3" fill="#E5F1FA" width="18" height="18"/>
		<rect x="414.398" y="361.3" fill="#E5F1FA" width="18" height="18"/>
		<rect x="414.398" y="343.3" fill="#E5F1FA" width="18" height="18"/>
		<rect x="414.398" y="325.3" fill="#E5F1FA" width="18" height="18"/>
		<rect x="414.398" y="307.3" fill="#E5F1FA" width="18" height="18"/>
		<rect x="414.398" y="289.3" fill="#E5F1FA" width="18" height="18"/>
		<rect x="414.398" y="271.3" fill="#E5F1FA" width="18" height="18"/>
		<rect x="414.398" y="253.3" fill="#E5F1FA" width="18" height="18"/>
		<rect x="414.398" y="235.3" fill="#E5F1FA" width="18" height="18"/>
		<rect x="414.398" y="217.3" fill="#E5F1FA" width="18" height="18"/>
		<rect x="414.398" y="199.3" fill="#E5F1FA" width="18" height="18"/>
		<rect x="414.398" y="181.3" width="18" height="18"/>
		<rect x="414.398" y="163.3" fill="#FFFFFF" width="18" height="18"/>
		<rect x="414.398" y="145.3" fill="#F04849" width="18" height="18"/>
		<rect x="414.398" y="127.3" fill="#F04849" width="18" height="18"/>
		<rect x="414.398" y="109.3" width="18" height="18"/>
		<rect x="414.398" y="91.3" fill="#FFFFFF" width="18" height="18"/>
		<rect x="414.398" y="73.3" width="18" height="18"/>
		<rect x="396.398" y="451.01" fill="#E5F1FA" width="18" height="18"/>
		<rect x="396.398" y="433.291" fill="#962A1F" width="18" height="17.72"/>
		<rect x="396.398" y="415.3" fill="#962A1F" width="18" height="17.71"/>
		<rect x="396.398" y="397.3" fill="#962A1F" width="18" height="17.99"/>
		<rect x="396.398" y="379.3" fill="#962A1F" width="18" height="18"/>
		<rect x="396.398" y="361.3" fill="#962A1F" width="18" height="18"/>
		<rect x="396.398" y="343.3" fill="#962A1F" width="18" height="18"/>
		<rect x="396.398" y="325.3" fill="#962A1F" width="18" height="18"/>
		<rect x="396.398" y="307.3" fill="#962A1F" width="18" height="18"/>
		<rect x="396.398" y="289.3" fill="#962A1F" width="18" height="18"/>
		<rect x="396.398" y="271.3" fill="#962A1F" width="18" height="18"/>
		<rect x="396.398" y="253.3" fill="#962A1F" width="18" height="18"/>
		<rect x="396.398" y="235.3" fill="#962A1F" width="18" height="18"/>
		<rect x="396.398" y="217.3" fill="#962A1F" width="18" height="18"/>
		<rect x="396.398" y="199.3" width="18" height="18"/>
		<rect x="396.398" y="181.3" fill="#F04849" width="18" height="18"/>
		<rect x="396.398" y="163.3" fill="#F04849" width="18" height="18"/>
		<rect x="396.398" y="145.3" fill="#FFFFFF" width="18" height="18"/>
		<rect x="396.398" y="127.3" fill="#FFFFFF" width="18" height="18"/>
		<rect x="396.398" y="109.3" width="18" height="18"/>
		<rect x="396.398" y="91.3" fill="#F04849" width="18" height="18"/>
		<rect x="396.398" y="73.3" width="18" height="18"/>
		<rect x="378.398" y="469.01" fill="#E5F1FA" width="18" height="18"/>
		<rect x="378.398" y="451.01" fill="#962A1F" width="18" height="18"/>
		<rect x="378.398" y="433.291" fill="#962A1F" width="18" height="17.72"/>
		<rect x="378.398" y="415.3" fill="#962A1F" width="18" height="17.71"/>
		<rect x="378.398" y="397.3" fill="#962A1F" width="18" height="17.99"/>
		<rect x="378.398" y="379.3" fill="#962A1F" width="18" height="18"/>
		<rect x="378.398" y="361.3" fill="#962A1F" width="18" height="18"/>
		<rect x="378.398" y="343.3" width="18" height="18"/>
		<rect x="378.398" y="325.3" width="18" height="18"/>
		<rect x="378.398" y="307.3" width="18" height="18"/>
		<rect x="378.398" y="289.3" width="18" height="18"/>
		<rect x="378.398" y="271.3" width="18" height="18"/>
		<rect x="378.398" y="253.3" width="18" height="18"/>
		<rect x="378.398" y="235.3" fill="#962A1F" width="18" height="18"/>
		<rect x="378.398" y="217.3" fill="#962A1F" width="18" height="18"/>
		<rect x="378.398" y="199.3" fill="#962A1F" width="18" height="18"/>
		<rect x="378.398" y="181.3" width="18" height="18"/>
		<rect x="378.398" y="163.3" fill="#F04849" width="18" height="18"/>
		<rect x="378.398" y="145.3" fill="#FFFFFF" width="18" height="18"/>
		<rect x="378.398" y="127.3" width="18" height="18"/>
		<rect x="378.398" y="109.3" fill="#F04849" width="18" height="18"/>
		<rect x="378.398" y="91.3" fill="#F04849" width="18" height="18"/>
		<rect x="378.398" y="73.3" fill="#FFFFFF" width="18" height="18"/>
		<rect x="378.398" y="55.3" width="18" height="18"/>
		<rect x="360.398" y="469.01" fill="#E5F1FA" width="18" height="18"/>
		<rect x="360.398" y="451.01" fill="#962A1F" width="18" height="18"/>
		<rect x="360.398" y="433.291" fill="#962A1F" width="18" height="17.72"/>
		<rect x="360.398" y="415.3" fill="#962A1F" width="18" height="17.71"/>
		<rect x="360.398" y="397.3" fill="#962A1F" width="18" height="17.99"/>
		<rect x="360.398" y="379.3" fill="#962A1F" width="18" height="18"/>
		<rect x="360.398" y="361.3" width="18" height="18"/>
		<rect x="360.398" y="343.3" width="18" height="18"/>
		<rect x="360.398" y="325.3" fill="#FFFFFF" width="18" height="18"/>
		<rect x="360.398" y="307.3" fill="#FFFFFF" width="18" height="18"/>
		<rect x="360.398" y="289.3" fill="#FFFFFF" width="18" height="18"/>
		<rect x="360.398" y="271.3" fill="#FFFFFF" width="18" height="18"/>
		<rect x="360.398" y="253.3" width="18" height="18"/>
		<rect x="360.398" y="235.3" width="18" height="18"/>
		<rect x="360.398" y="217.3" fill="#962A1F" width="18" height="18"/>
		<rect x="360.398" y="199.3" fill="#962A1F" width="18" height="18"/>
		<rect x="360.398" y="181.3" width="18" height="18"/>
		<rect x="360.398" y="163.3" fill="#FFFFFF" width="18" height="18"/>
		<rect x="360.398" y="145.3" fill="#F04849" width="18" height="18"/>
		<rect x="360.398" y="127.3" width="18" height="18"/>
		<rect x="360.398" y="109.3" fill="#FFFFFF" width="18" height="18"/>
		<rect x="360.398" y="91.3" fill="#FFFFFF" width="18" height="18"/>
		<rect x="360.398" y="73.3" fill="#F04849" width="18" height="18"/>
		<rect x="360.398" y="55.3" width="18" height="18"/>
		<rect x="342.398" y="487.01" fill="#E5F1FA" width="18" height="18"/>
		<rect x="342.398" y="469.01" fill="#962A1F" width="18" height="18"/>
		<rect x="342.398" y="451.01" fill="#962A1F" width="18" height="18"/>
		<rect x="342.398" y="433.291" fill="#962A1F" width="18" height="17.72"/>
		<rect x="342.398" y="415.3" fill="#962A1F" width="18" height="17.71"/>
		<rect x="342.398" y="397.3" fill="#962A1F" width="18" height="17.99"/>
		<rect x="342.398" y="379.3" width="18" height="18"/>
		<rect x="342.398" y="361.3" width="18" height="18"/>
		<rect x="342.398" y="343.3" fill="#FFFFFF" width="18" height="18"/>
		<rect x="342.398" y="325.3" fill="#FFFFFF" width="18" height="18"/>
		<rect x="342.398" y="307.3" width="18" height="18"/>
		<rect x="342.398" y="289.3" fill="#FFFFFF" width="18" height="18"/>
		<rect x="342.398" y="271.3" fill="#FFFFFF" width="18" height="18"/>
		<rect x="342.398" y="253.3" fill="#FFFFFF" width="18" height="18"/>
		<rect x="342.398" y="235.3" width="18" height="18"/>
		<rect x="342.398" y="217.3" fill="#962A1F" width="18" height="18"/>
		<rect x="342.398" y="199.3" width="18" height="18"/>
		<rect x="342.398" y="181.3" fill="#F04849" width="18" height="18"/>
		<rect x="342.398" y="163.3" fill="#FFFFFF" width="18" height="18"/>
		<rect x="342.398" y="145.3" width="18" height="18"/>
		<rect x="342.398" y="127.3" fill="#F04849" width="18" height="18"/>
		<rect x="342.398" y="109.3" fill="#FFFFFF" width="18" height="18"/>
		<rect x="342.398" y="91.3" fill="#FFFFFF" width="18" height="18"/>
		<rect x="342.398" y="73.3" fill="#F04849" width="18" height="18"/>
		<rect x="342.398" y="55.3" fill="#FFFFFF" width="18" height="18"/>
		<rect x="342.398" y="37.3" width="18" height="18"/>
		<rect x="324.398" y="487.01" fill="#E5F1FA" width="18" height="18"/>
		<rect x="324.398" y="469.01" fill="#962A1F" width="18" height="18"/>
		<rect x="324.398" y="451.01" fill="#962A1F" width="18" height="18"/>
		<rect x="324.398" y="433.291" fill="#962A1F" width="18" height="17.72"/>
		<rect x="324.398" y="415.3" fill="#962A1F" width="18" height="17.71"/>
		<rect x="324.398" y="397.3" fill="#962A1F" width="18" height="17.99"/>
		<rect x="324.398" y="379.3" width="18" height="18"/>
		<rect x="324.398" y="361.3" fill="#FFFFFF" width="18" height="18"/>
		<rect x="324.398" y="343.3" fill="#FFFFFF" width="18" height="18"/>
		<rect x="324.398" y="325.3" width="18" height="18"/>
		<rect x="324.398" y="307.3" fill="#FFFFFF" width="18" height="18"/>
		<rect x="324.398" y="289.3" width="18" height="18"/>
		<rect x="324.398" y="271.3" fill="#FFFFFF" width="18" height="18"/>
		<rect x="324.398" y="253.3" fill="#FFFFFF" width="18" height="18"/>
		<rect x="324.398" y="235.3" width="18" height="18"/>
		<rect x="324.398" y="217.3" fill="#962A1F" width="18" height="18"/>
		<rect x="324.398" y="199.3" width="18" height="18"/>
		<rect x="324.398" y="181.3" fill="#FFFFFF" width="18" height="18"/>
		<rect x="324.398" y="163.3" fill="#F04849" width="18" height="18"/>
		<rect x="324.398" y="145.3" width="18" height="18"/>
		<rect x="324.398" y="127.3" fill="#FFFFFF" width="18" height="18"/>
		<rect x="324.398" y="109.3" fill="#F04849" width="18" height="18"/>
		<rect x="324.398" y="91.3" fill="#F04849" width="18" height="18"/>
		<rect x="324.398" y="73.3" fill="#FFFFFF" width="18" height="18"/>
		<rect x="324.398" y="55.3" fill="#F04849" width="18" height="18"/>
		<rect x="324.398" y="37.3" width="18" height="18"/>
		<rect x="306.398" y="487.01" fill="#E5F1FA" width="18" height="18"/>
		<rect x="306.398" y="469.01" fill="#962A1F" width="18" height="18"/>
		<rect x="306.398" y="451.01" fill="#962A1F" width="18" height="18"/>
		<rect x="306.398" y="433.291" fill="#962A1F" width="18" height="17.72"/>
		<rect x="306.398" y="415.3" fill="#962A1F" width="18" height="17.71"/>
		<rect x="306.398" y="397.3" fill="#962A1F" width="18" height="17.99"/>
		<rect x="306.398" y="379.3" width="18" height="18"/>
		<rect x="306.398" y="361.3" fill="#FFFFFF" width="18" height="18"/>
		<rect x="306.398" y="343.3" width="18" height="18"/>
		<rect x="306.398" y="325.3" fill="#FFFFFF" width="18" height="18"/>
		<rect x="306.398" y="307.3" fill="#FFFFFF" width="18" height="18"/>
		<rect x="306.398" y="289.3" fill="#FFFFFF" width="18" height="18"/>
		<rect x="306.398" y="271.3" width="18" height="18"/>
		<rect x="306.398" y="253.3" fill="#FFFFFF" width="18" height="18"/>
		<rect x="306.398" y="235.3" width="18" height="18"/>
		<rect x="306.398" y="217.3" fill="#962A1F" width="18" height="18"/>
		<rect x="306.398" y="199.3" fill="#962A1F" width="18" height="18"/>
		<rect x="306.398" y="181.3" width="18" height="18"/>
		<rect x="306.398" y="163.3" fill="#F04849" width="18" height="18"/>
		<rect x="306.398" y="145.3" width="18" height="18"/>
		<rect x="306.398" y="127.3" fill="#FFFFFF" width="18" height="18"/>
		<rect x="306.398" y="109.3" fill="#F04849" width="18" height="18"/>
		<rect x="306.398" y="91.3" fill="#F04849" width="18" height="18"/>
		<rect x="306.398" y="73.3" fill="#FFFFFF" width="18" height="18"/>
		<rect x="306.398" y="55.3" fill="#F04849" width="18" height="18"/>
		<rect x="306.398" y="37.3" width="18" height="18"/>
		<rect x="288.398" y="487.01" fill="#E5F1FA" width="18" height="18"/>
		<rect x="288.398" y="469.01" fill="#962A1F" width="18" height="18"/>
		<rect x="288.398" y="451.01" fill="#962A1F" width="18" height="18"/>
		<rect x="288.398" y="433.291" fill="#962A1F" width="18" height="17.72"/>
		<rect x="288.398" y="415.3" fill="#962A1F" width="18" height="17.71"/>
		<rect x="288.398" y="397.3" fill="#962A1F" width="18" height="17.99"/>
		<rect x="288.398" y="379.3" width="18" height="18"/>
		<rect x="288.398" y="361.3" fill="#FFFFFF" width="18" height="18"/>
		<rect x="288.398" y="343.3" fill="#FFFFFF" width="18" height="18"/>
		<rect x="288.398" y="325.3" fill="#FFFFFF" width="18" height="18"/>
		<rect x="288.398" y="307.3" fill="#FFFFFF" width="18" height="18"/>
		<rect x="288.398" y="289.3" fill="#FFFFFF" width="18" height="18"/>
		<rect x="288.398" y="271.3" fill="#FFFFFF" width="18" height="18"/>
		<rect x="288.398" y="253.3" fill="#FFFFFF" width="18" height="18"/>
		<rect x="288.398" y="235.3" width="18" height="18"/>
		<rect x="288.398" y="217.3" fill="#962A1F" width="18" height="18"/>
		<rect x="288.398" y="199.3" width="18" height="18"/>
		<rect x="288.398" y="181.3" fill="#FFFFFF" width="18" height="18"/>
		<rect x="288.398" y="163.3" fill="#FFFFFF" width="18" height="18"/>
		<rect x="288.398" y="145.3" width="18" height="18"/>
		<rect x="288.398" y="127.3" fill="#F04849" width="18" height="18"/>
		<rect x="288.398" y="109.3" fill="#FFFFFF" width="18" height="18"/>
		<rect x="288.398" y="91.3" fill="#FFFFFF" width="18" height="18"/>
		<rect x="288.398" y="73.3" fill="#F04849" width="18" height="18"/>
		<rect x="288.398" y="55.3" fill="#FFFFFF" width="18" height="18"/>
		<rect x="288.398" y="37.3" width="18" height="18"/>
		<rect x="270.398" y="487.01" fill="#E5F1FA" width="18" height="18"/>
		<rect x="270.398" y="469.01" fill="#962A1F" width="18" height="18"/>
		<rect x="270.398" y="451.01" fill="#962A1F" width="18" height="18"/>
		<rect x="270.398" y="433.291" fill="#962A1F" width="18" height="17.72"/>
		<rect x="270.398" y="415.3" fill="#962A1F" width="18" height="17.71"/>
		<rect x="270.398" y="397.3" fill="#962A1F" width="18" height="17.99"/>
		<rect x="270.398" y="379.3" width="18" height="18"/>
		<rect x="270.398" y="361.3" fill="#FFFFFF" width="18" height="18"/>
		<rect x="270.398" y="343.3" fill="#FFFFFF" width="18" height="18"/>
		<rect x="270.398" y="325.3" fill="#FFFFFF" width="18" height="18"/>
		<rect x="270.398" y="307.3" fill="#FFFFFF" width="18" height="18"/>
		<rect x="270.398" y="289.3" fill="#FFFFFF" width="18" height="18"/>
		<rect x="270.398" y="271.3" width="18" height="18"/>
		<rect x="270.398" y="253.3" fill="#FFFFFF" width="18" height="18"/>
		<rect x="270.398" y="235.3" width="18" height="18"/>
		<rect x="270.398" y="217.3" fill="#962A1F" width="18" height="18"/>
		<rect x="270.398" y="199.3" width="18" height="18"/>
		<rect x="270.398" y="181.3" fill="#F04849" width="18" height="18"/>
		<rect x="270.398" y="163.3" fill="#FFFFFF" width="18" height="18"/>
		<rect x="270.398" y="145.3" width="18" height="18"/>
		<rect x="270.398" y="127.3" fill="#F04849" width="18" height="18"/>
		<rect x="270.398" y="109.3" fill="#FFFFFF" width="18" height="18"/>
		<rect x="270.398" y="91.3" fill="#FFFFFF" width="18" height="18"/>
		<rect x="270.398" y="73.3" fill="#F04849" width="18" height="18"/>
		<rect x="270.398" y="55.3" fill="#FFFFFF" width="18" height="18"/>
		<rect x="270.398" y="37.3" width="18" height="18"/>
		<rect x="252.398" y="487.01" fill="#E5F1FA" width="18" height="18"/>
		<rect x="252.398" y="469.01" fill="#962A1F" width="18" height="18"/>
		<rect x="252.398" y="451.01" fill="#962A1F" width="18" height="18"/>
		<rect x="252.398" y="433.291" fill="#962A1F" width="18" height="17.72"/>
		<rect x="252.398" y="415.3" fill="#962A1F" width="18" height="17.71"/>
		<rect x="252.398" y="397.3" fill="#962A1F" width="18" height="17.99"/>
		<rect x="252.398" y="379.3" width="18" height="18"/>
		<rect x="252.398" y="361.3" fill="#FFFFFF" width="18" height="18"/>
		<rect x="252.398" y="343.3" fill="#FFFFFF" width="18" height="18"/>
		<rect x="252.398" y="325.3" fill="#FFFFFF" width="18" height="18"/>
		<rect x="252.398" y="307.3" width="18" height="18"/>
		<rect x="252.398" y="289.3" width="18" height="18"/>
		<rect x="252.398" y="271.3" fill="#FFFFFF" width="18" height="18"/>
		<rect x="252.398" y="253.3" fill="#FFFFFF" width="18" height="18"/>
		<rect x="252.398" y="235.3" width="18" height="18"/>
		<rect x="252.398" y="217.3" fill="#962A1F" width="18" height="18"/>
		<rect x="252.398" y="199.3" fill="#962A1F" width="18" height="18"/>
		<rect x="252.398" y="181.3" width="18" height="18"/>
		<rect x="252.398" y="163.3" fill="#F04849" width="18" height="18"/>
		<rect x="252.398" y="145.3" width="18" height="18"/>
		<rect x="252.398" y="127.3" fill="#FFFFFF" width="18" height="18"/>
		<rect x="252.398" y="109.3" fill="#F04849" width="18" height="18"/>
		<rect x="252.398" y="91.3" fill="#F04849" width="18" height="18"/>
		<rect x="252.398" y="73.3" fill="#FFFFFF" width="18" height="18"/>
		<rect x="252.398" y="55.3" fill="#F04849" width="18" height="18"/>
		<rect x="252.398" y="37.3" width="18" height="18"/>
		<rect x="234.398" y="487.01" fill="#E5F1FA" width="18" height="18"/>
		<rect x="234.398" y="469.01" fill="#962A1F" width="18" height="18"/>
		<rect x="234.398" y="451.01" fill="#962A1F" width="18" height="18"/>
		<rect x="234.398" y="433.291" fill="#962A1F" width="18" height="17.72"/>
		<rect x="234.398" y="415.3" fill="#962A1F" width="18" height="17.71"/>
		<rect x="234.398" y="397.3" fill="#962A1F" width="18" height="17.99"/>
		<rect x="234.398" y="379.3" width="18" height="18"/>
		<rect x="234.398" y="361.3" fill="#FFFFFF" width="18" height="18"/>
		<rect x="234.398" y="343.3" width="18" height="18"/>
		<rect x="234.398" y="325.3" width="18" height="18"/>
		<rect x="234.398" y="307.3" fill="#FFFFFF" width="18" height="18"/>
		<rect x="234.398" y="289.3" fill="#FFFFFF" width="18" height="18"/>
		<rect x="234.398" y="271.3" fill="#FFFFFF" width="18" height="18"/>
		<rect x="234.398" y="253.3" fill="#FFFFFF" width="18" height="18"/>
		<rect x="234.398" y="235.3" width="18" height="18"/>
		<rect x="234.398" y="217.3" fill="#962A1F" width="18" height="18"/>
		<rect x="234.398" y="199.3" fill="#962A1F" width="18" height="18"/>
		<rect x="234.398" y="181.3" width="18" height="18"/>
		<rect x="234.398" y="163.3" fill="#F04849" width="18" height="18"/>
		<rect x="234.398" y="145.3" width="18" height="18"/>
		<rect x="234.398" y="127.3" fill="#FFFFFF" width="18" height="18"/>
		<rect x="234.398" y="109.3" fill="#F04849" width="18" height="18"/>
		<rect x="234.398" y="91.3" fill="#F04849" width="18" height="18"/>
		<rect x="234.398" y="73.3" fill="#FFFFFF" width="18" height="18"/>
		<rect x="234.398" y="55.3" fill="#F04849" width="18" height="18"/>
		<rect x="234.398" y="37.3" width="18" height="18"/>
		<rect x="216.398" y="487.01" fill="#E5F1FA" width="18" height="18"/>
		<rect x="216.398" y="469.01" fill="#962A1F" width="18" height="18"/>
		<rect x="216.398" y="451.01" fill="#962A1F" width="18" height="18"/>
		<rect x="216.398" y="433.291" fill="#962A1F" width="18" height="17.72"/>
		<rect x="216.398" y="415.3" fill="#962A1F" width="18" height="17.71"/>
		<rect x="216.398" y="397.3" fill="#962A1F" width="18" height="17.99"/>
		<rect x="216.398" y="379.3" width="18" height="18"/>
		<rect x="216.398" y="361.3" fill="#FFFFFF" width="18" height="18"/>
		<rect x="216.398" y="343.3" fill="#FFFFFF" width="18" height="18"/>
		<rect x="216.398" y="325.3" fill="#FFFFFF" width="18" height="18"/>
		<rect x="216.398" y="307.3" fill="#FFFFFF" width="18" height="18"/>
		<rect x="216.398" y="289.3" fill="#FFFFFF" width="18" height="18"/>
		<rect x="216.398" y="271.3" fill="#FFFFFF" width="18" height="18"/>
		<rect x="216.398" y="253.3" fill="#FFFFFF" width="18" height="18"/>
		<rect x="216.398" y="235.3" width="18" height="18"/>
		<rect x="216.398" y="217.3" fill="#962A1F" width="18" height="18"/>
		<rect x="216.398" y="199.3" width="18" height="18"/>
		<rect x="216.398" y="181.3" fill="#FFFFFF" width="18" height="18"/>
		<rect x="216.398" y="163.3" fill="#FFFFFF" width="18" height="18"/>
		<rect x="216.398" y="145.3" width="18" height="18"/>
		<rect x="216.398" y="127.3" fill="#F04849" width="18" height="18"/>
		<rect x="216.398" y="109.3" fill="#FFFFFF" width="18" height="18"/>
		<rect x="216.398" y="91.3" fill="#FFFFFF" width="18" height="18"/>
		<rect x="216.398" y="73.3" fill="#F04849" width="18" height="18"/>
		<rect x="216.398" y="37.3" width="18" height="18"/>
		<rect x="198.398" y="487.01" fill="#E5F1FA" width="18" height="18"/>
		<rect x="198.398" y="469.01" fill="#962A1F" width="18" height="18"/>
		<rect x="198.398" y="451.01" fill="#962A1F" width="18" height="18"/>
		<rect x="198.398" y="433.291" fill="#962A1F" width="18" height="17.72"/>
		<rect x="198.398" y="415.3" fill="#962A1F" width="18" height="17.71"/>
		<rect x="198.398" y="397.3" fill="#962A1F" width="18" height="17.99"/>
		<rect x="198.398" y="379.3" width="18" height="18"/>
		<rect x="198.398" y="361.3" fill="#FFFFFF" width="18" height="18"/>
		<rect x="198.398" y="343.3" width="18" height="18"/>
		<rect x="198.398" y="325.3" fill="#FFFFFF" width="18" height="18"/>
		<rect x="198.398" y="307.3" fill="#FFFFFF" width="18" height="18"/>
		<rect x="198.398" y="289.3" fill="#FFFFFF" width="18" height="18"/>
		<rect x="198.398" y="271.3" width="18" height="18"/>
		<rect x="198.398" y="253.3" fill="#FFFFFF" width="18" height="18"/>
		<rect x="198.398" y="235.3" width="18" height="18"/>
		<rect x="198.398" y="217.3" fill="#962A1F" width="18" height="18"/>
		<rect x="198.398" y="199.3" fill="#962A1F" width="18" height="18"/>
		<rect x="198.398" y="181.3" width="18" height="18"/>
		<rect x="198.398" y="163.3" fill="#FFFFFF" width="18" height="18"/>
		<rect x="198.398" y="145.3" width="18" height="18"/>
		<rect x="198.398" y="127.3" fill="#F04849" width="18" height="18"/>
		<rect x="198.398" y="109.3" fill="#FFFFFF" width="18" height="18"/>
		<rect x="198.398" y="91.3" fill="#FFFFFF" width="18" height="18"/>
		<rect x="198.398" y="73.3" fill="#F04849" width="18" height="18"/>
		<rect x="198.398" y="37.3" width="18" height="18"/>
		<rect x="180.398" y="487.01" fill="#E5F1FA" width="18" height="18"/>
		<rect x="180.398" y="469.01" fill="#962A1F" width="18" height="18"/>
		<rect x="180.398" y="451.01" fill="#962A1F" width="18" height="18"/>
		<polygon fill="#962A1F" points="198.398,433.291 198.398,451.01 180.398,451.01 180.398,433.291 180.408,433.291 		"/>
		<rect x="180.408" y="415.3" fill="#962A1F" width="17.99" height="17.71"/>
		<rect x="180.408" y="397.3" fill="#962A1F" width="17.99" height="17.99"/>
		<rect x="180.408" y="379.3" width="17.99" height="18"/>
		<rect x="180.408" y="361.3" fill="#FFFFFF" width="17.99" height="18"/>
		<rect x="180.408" y="343.3" fill="#FFFFFF" width="17.99" height="18"/>
		<rect x="180.408" y="325.3" width="17.99" height="18"/>
		<rect x="180.408" y="307.3" fill="#FFFFFF" width="17.99" height="18"/>
		<rect x="180.408" y="289.3" width="17.99" height="18"/>
		<rect x="180.408" y="271.3" fill="#FFFFFF" width="17.99" height="18"/>
		<rect x="180.408" y="253.3" fill="#FFFFFF" width="17.99" height="18"/>
		<rect x="180.408" y="235.3" width="17.99" height="18"/>
		<rect x="180.408" y="217.3" fill="#962A1F" width="17.99" height="18"/>
		<rect x="180.408" y="199.3" fill="#962A1F" width="17.99" height="18"/>
		<rect x="180.408" y="181.3" width="17.99" height="18"/>
		<rect x="180.408" y="163.3" fill="#F04849" width="17.99" height="18"/>
		<rect x="180.408" y="145.3" width="17.99" height="18"/>
		<rect x="180.408" y="127.3" fill="#FFFFFF" width="17.99" height="18"/>
		<rect x="180.408" y="109.3" fill="#F04849" width="17.99" height="18"/>
		<rect x="180.408" y="91.3" fill="#F04849" width="17.99" height="18"/>
		<rect x="180.408" y="73.3" fill="#FFFFFF" width="17.99" height="18"/>
		<rect x="180.408" y="55.3" fill="#F04849" width="17.99" height="18"/>
		<rect x="180.408" y="37.3" width="17.99" height="18"/>
		<rect x="162.408" y="487.01" fill="#E5F1FA" width="17.99" height="18"/>
		<rect x="162.408" y="469.01" fill="#962A1F" width="17.99" height="18"/>
		<rect x="162.408" y="451.01" fill="#962A1F" width="17.99" height="18"/>
		<rect x="162.408" y="433.291" fill="#962A1F" width="17.99" height="17.72"/>
		<rect x="162.408" y="415.3" fill="#962A1F" width="17.99" height="17.71"/>
		<rect x="162.408" y="397.3" fill="#962A1F" width="17.99" height="17.99"/>
		<rect x="162.408" y="379.3" width="17.99" height="18"/>
		<rect x="162.408" y="361.3" width="17.99" height="18"/>
		<rect x="162.408" y="343.3" fill="#FFFFFF" width="17.99" height="18"/>
		<rect x="162.408" y="325.3" fill="#FFFFFF" width="17.99" height="18"/>
		<rect x="162.408" y="307.3" width="17.99" height="18"/>
		<rect x="162.408" y="289.3" fill="#FFFFFF" width="17.99" height="18"/>
		<rect x="162.408" y="271.3" fill="#FFFFFF" width="17.99" height="18"/>
		<rect x="162.408" y="253.3" fill="#FFFFFF" width="17.99" height="18"/>
		<rect x="162.408" y="235.3" width="17.99" height="18"/>
		<rect x="162.408" y="217.3" fill="#962A1F" width="17.99" height="18"/>
		<rect x="162.408" y="199.3" width="17.99" height="18"/>
		<rect x="162.408" y="181.3" fill="#F04849" width="17.99" height="18"/>
		<rect x="162.408" y="163.3" fill="#F04849" width="17.99" height="18"/>
		<rect x="162.408" y="145.3" width="17.99" height="18"/>
		<rect x="162.408" y="127.3" fill="#FFFFFF" width="17.99" height="18"/>
		<rect x="162.408" y="109.3" fill="#F04849" width="17.99" height="18"/>
		<rect x="162.408" y="91.3" fill="#F04849" width="17.99" height="18"/>
		<rect x="162.408" y="73.3" fill="#FFFFFF" width="17.99" height="18"/>
		<rect x="162.408" y="55.3" fill="#F04849" width="17.99" height="18"/>
		<rect x="162.408" y="37.3" width="17.99" height="18"/>
		<rect x="144.408" y="469.01" fill="#E5F1FA" width="18" height="18"/>
		<rect x="144.408" y="451.01" fill="#962A1F" width="18" height="18"/>
		<rect x="144.408" y="433.291" fill="#962A1F" width="18" height="17.72"/>
		<rect x="144.408" y="415.3" fill="#962A1F" width="18" height="17.71"/>
		<rect x="144.408" y="397.3" fill="#962A1F" width="18" height="17.99"/>
		<rect x="144.408" y="379.3" fill="#962A1F" width="18" height="18"/>
		<rect x="144.408" y="361.3" width="18" height="18"/>
		<rect x="144.408" y="343.3" width="18" height="18"/>
		<rect x="144.408" y="325.3" fill="#FFFFFF" width="18" height="18"/>
		<rect x="144.408" y="307.3" fill="#FFFFFF" width="18" height="18"/>
		<rect x="144.408" y="289.3" fill="#FFFFFF" width="18" height="18"/>
		<rect x="144.408" y="271.3" fill="#FFFFFF" width="18" height="18"/>
		<rect x="144.408" y="253.3" width="18" height="18"/>
		<rect x="144.408" y="235.3" width="18" height="18"/>
		<rect x="144.408" y="217.3" fill="#962A1F" width="18" height="18"/>
		<rect x="144.408" y="199.3" width="18" height="18"/>
		<rect x="144.408" y="181.3" fill="#FFFFFF" width="18" height="18"/>
		<rect x="144.408" y="163.3" fill="#FFFFFF" width="18" height="18"/>
		<rect x="144.408" y="145.3" fill="#F04849" width="18" height="18"/>
		<rect x="144.408" y="127.3" width="18" height="18"/>
		<rect x="144.408" y="109.3" fill="#FFFFFF" width="18" height="18"/>
		<rect x="144.408" y="91.3" fill="#FFFFFF" width="18" height="18"/>
		<rect x="144.408" y="73.3" fill="#F04849" width="18" height="18"/>
		<rect x="144.408" y="55.3" width="18" height="18"/>
		<rect x="126.408" y="469.01" fill="#E5F1FA" width="18" height="18"/>
		<rect x="126.408" y="451.01" fill="#962A1F" width="18" height="18"/>
		<rect x="126.408" y="433.291" fill="#962A1F" width="18" height="17.72"/>
		<rect x="126.408" y="415.3" fill="#962A1F" width="18" height="17.71"/>
		<rect x="126.408" y="397.3" fill="#962A1F" width="18" height="17.99"/>
		<rect x="126.408" y="379.3" fill="#962A1F" width="18" height="18"/>
		<rect x="126.408" y="361.3" fill="#962A1F" width="18" height="18"/>
		<rect x="126.408" y="343.3" width="18" height="18"/>
		<rect x="126.408" y="325.3" width="18" height="18"/>
		<rect x="126.408" y="307.3" width="18" height="18"/>
		<rect x="126.408" y="289.3" width="18" height="18"/>
		<rect x="126.408" y="271.3" width="18" height="18"/>
		<rect x="126.408" y="253.3" width="18" height="18"/>
		<rect x="126.408" y="235.3" fill="#962A1F" width="18" height="18"/>
		<rect x="126.408" y="217.3" fill="#962A1F" width="18" height="18"/>
		<rect x="126.408" y="199.3" fill="#962A1F" width="18" height="18"/>
		<rect x="126.408" y="181.3" width="18" height="18"/>
		<rect x="126.408" y="163.3" fill="#FFFFFF" width="18" height="18"/>
		<rect x="126.408" y="145.3" fill="#F04849" width="18" height="18"/>
		<rect x="126.408" y="127.3" width="18" height="18"/>
		<rect x="126.408" y="109.3" fill="#FFFFFF" width="18" height="18"/>
		<rect x="126.408" y="91.3" fill="#FFFFFF" width="18" height="18"/>
		<rect x="126.408" y="73.3" fill="#F04849" width="18" height="18"/>
		<rect x="126.408" y="55.3" width="18" height="18"/>
		<rect x="108.408" y="451.01" fill="#E5F1FA" width="18" height="18"/>
		<rect x="108.408" y="433.291" fill="#962A1F" width="18" height="17.72"/>
		<rect x="108.408" y="415.3" fill="#962A1F" width="18" height="17.71"/>
		<rect x="108.408" y="397.3" fill="#962A1F" width="18" height="17.99"/>
		<rect x="108.408" y="379.3" fill="#962A1F" width="18" height="18"/>
		<rect x="108.408" y="361.3" fill="#962A1F" width="18" height="18"/>
		<rect x="108.408" y="343.3" fill="#962A1F" width="18" height="18"/>
		<rect x="108.408" y="325.3" fill="#962A1F" width="18" height="18"/>
		<rect x="108.408" y="307.3" fill="#962A1F" width="18" height="18"/>
		<rect x="108.408" y="289.3" fill="#962A1F" width="18" height="18"/>
		<rect x="108.408" y="271.3" fill="#962A1F" width="18" height="18"/>
		<rect x="108.408" y="253.3" fill="#962A1F" width="18" height="18"/>
		<rect x="108.408" y="235.3" fill="#962A1F" width="18" height="18"/>
		<rect x="108.408" y="217.3" fill="#962A1F" width="18" height="18"/>
		<rect x="108.408" y="199.3" width="18" height="18"/>
		<rect x="108.408" y="181.3" fill="#F04849" width="18" height="18"/>
		<rect x="108.408" y="163.3" fill="#F04849" width="18" height="18"/>
		<rect x="108.408" y="145.3" fill="#FFFFFF" width="18" height="18"/>
		<rect x="108.408" y="127.3" fill="#FFFFFF" width="18" height="18"/>
		<rect x="108.408" y="109.3" width="18" height="18"/>
		<rect x="108.408" y="91.3" fill="#F04849" width="18" height="18"/>
		<rect x="108.408" y="73.3" width="18" height="18"/>
		<rect x="90.408" y="433.291" fill="#E5F1FA" width="18" height="17.72"/>
		<rect x="90.408" y="415.3" fill="#E5F1FA" width="18" height="17.71"/>
		<rect x="90.408" y="397.3" fill="#E5F1FA" width="18" height="17.99"/>
		<rect x="90.408" y="379.3" fill="#E5F1FA" width="18" height="18"/>
		<rect x="90.408" y="361.3" fill="#E5F1FA" width="18" height="18"/>
		<rect x="90.408" y="343.3" fill="#E5F1FA" width="18" height="18"/>
		<rect x="90.408" y="325.3" fill="#E5F1FA" width="18" height="18"/>
		<rect x="90.408" y="307.3" fill="#E5F1FA" width="18" height="18"/>
		<rect x="90.408" y="289.3" fill="#E5F1FA" width="18" height="18"/>
		<rect x="90.408" y="271.3" fill="#E5F1FA" width="18" height="18"/>
		<rect x="90.408" y="253.3" fill="#E5F1FA" width="18" height="18"/>
		<rect x="90.408" y="235.3" fill="#E5F1FA" width="18" height="18"/>
		<rect x="90.408" y="217.3" fill="#E5F1FA" width="18" height="18"/>
		<rect x="90.408" y="199.3" fill="#E5F1FA" width="18" height="18"/>
		<rect x="90.408" y="181.3" width="18" height="18"/>
		<rect x="90.408" y="163.3" fill="#F04849" width="18" height="18"/>
		<rect x="90.408" y="145.3" fill="#FFFFFF" width="18" height="18"/>
		<rect x="90.408" y="127.3" fill="#FFFFFF" width="18" height="18"/>
		<rect x="90.408" y="109.3" width="18" height="18"/>
		<rect x="90.408" y="91.3" fill="#F04849" width="18" height="18"/>
		<rect x="90.408" y="73.3" width="18" height="18"/>
		<rect x="72.408" y="163.3" width="18" height="18"/>
		<rect x="72.408" y="145.3" width="18" height="18"/>
		<rect x="72.408" y="127.3" width="18" height="18"/>
		<rect x="72.408" y="109.3" width="18" height="18"/>
		<rect x="72.408" y="91.3" width="18" height="18"/>
	</g>
	<g>
	</g>
</g>
</svg>
